<svg xmlns="http://www.w3.org/2000/svg" viewBox="0 0 900 600"><defs><linearGradient id="sky" x1="0" y1="0" x2="0" y2="1"><stop stop-color="#171d28"/><stop offset="1" stop-color="#34302b"/></linearGradient></defs><rect width="900" height="600" rx="30" fill="url(#sky)"/><path d="M0 460L900 330v270H0z" fill="#141414"/><path d="M60 530l780-110" stroke="#777" stroke-width="5" stroke-dasharray="35 28"/><g transform="translate(105 280)"><rect x="70" y="85" width="360" height="125" rx="22" fill="#ddd"/><path d="M150 85h175l70 90H105z" fill="#1c252b"/><circle cx="150" cy="220" r="48" fill="#080808" stroke="#555" stroke-width="14"/><circle cx="355" cy="220" r="48" fill="#080808" stroke="#555" stroke-width="14"/><rect x="90" y="112" width="65" height="40" rx="5" fill="#202020"/><text x="108" y="139" fill="#fff" font-size="16" font-family="Arial" font-weight="700">Ç</text></g><g transform="translate(565 275)"><circle cx="62" cy="55" r="24" fill="#c5a27a"/><path d="M37 85h55l25 125H10z" fill="#d5d5d0"/><path d="M42 105l-60 70M89 105l70 55" stroke="#d5d5d0" stroke-width="22" stroke-linecap="round"/><path d="M25 208l-25 85M105 208l25 85" stroke="#1c1c1c" stroke-width="26" stroke-linecap="round"/><circle cx="-10" cy="190" r="55" fill="#0a0a0a" stroke="#555" stroke-width="13"/><circle cx="-10" cy="190" r="17" fill="#aaa"/></g><g fill="#f5c542"><circle cx="740" cy="90" r="8"/><circle cx="800" cy="90" r="6"/></g><path d="M740 90v220M800 90v205" stroke="#5c5348" stroke-width="4"/><path d="M730 92h20M790 92h20" stroke="#fff" stroke-width="16"/></svg>
