<svg xmlns="http://www.w3.org/2000/svg" viewBox="0 0 700 520"><rect width="700" height="520" rx="28" fill="#e9e9e4"/><path d="M0 410h700v110H0z" fill="#d5d5d0"/><g transform="translate(125 70)"><circle cx="170" cy="190" r="145" fill="#111"/><circle cx="170" cy="190" r="92" fill="#3a3a3a"/><circle cx="170" cy="190" r="44" fill="#b9b9b3"/><path d="M170 98v184M78 190h184M105 125l130 130M235 125L105 255" stroke="#d4d4ce" stroke-width="15" stroke-linecap="round"/></g><g transform="translate(420 135)"><circle cx="55" cy="48" r="22" fill="#b98e68"/><path d="M32 77h48l24 125H8z" fill="#777"/><path d="M39 95l-55 70M76 95l64 70" stroke="#777" stroke-width="20" stroke-linecap="round"/><path d="M24 200l-20 78M86 200l25 78" stroke="#222" stroke-width="24" stroke-linecap="round"/><path d="M108 165h90" stroke="#555" stroke-width="10"/></g><rect x="455" y="325" width="170" height="52" rx="8" fill="#222"/><circle cx="505" cy="351" r="15" fill="#aaa"/><circle cx="575" cy="351" r="15" fill="#aaa"/><text x="45" y="470" fill="#222" font-family="Arial" font-size="22" font-weight="800" letter-spacing="3">PROFESYONEL LASTİK SERVİSİ</text></svg>
